Coordinates
version=1
nRows=14
nColumns=42
inDegrees=yes

Units are S.I. units (second, meters, Newtons, ...)
If the header above contains a line with 'inDegrees', this indicates whether rotational values are in degrees (yes) or radians (no).

endheader
time	pelvis_tilt	pelvis_list	pelvis_rotation	pelvis_tx	pelvis_ty	pelvis_tz	hip_flexion_r	hip_adduction_r	hip_rotation_r	knee_angle_r	knee_adduction_r	knee_angle_r_beta	ankle_angle_r	subtalar_angle_r	mtp_angle_r	hip_flexion_l	hip_adduction_l	hip_rotation_l	knee_angle_l	knee_adduction_l	knee_angle_l_beta	ankle_angle_l	subtalar_angle_l	mtp_angle_l	lumbar_extension	lumbar_bending	lumbar_rotation	arm_flex_r	arm_add_r	arm_rot_r	elbow_flex_r	pro_sup_r	wrist_flex_r	wrist_dev_r	arm_flex_l	arm_add_l	arm_rot_l	elbow_flex_l	pro_sup_l	wrist_flex_l	wrist_dev_l
      0.30000000	     16.84794878	      0.94713506	     -0.54486090	     -0.90787099	      0.99353554	     -0.14968452	      4.26603466	     -2.23001172	     -2.94932519	     40.03302423	      3.70449087	      0.69870808	      4.69894702	     -8.80727529	     -9.62988769	    -22.21067903	      3.71549121	     -6.19943735	      3.49181219	      1.57267850	      0.06094362	      8.40619990	     16.39335877	     -9.62988769	    -38.07342539	     -0.60729501	      1.78460621	     -1.37111454	    -19.22759993	     -5.76269106	     66.63777755	     90.00000001	      0.00000000	      0.00000000	      3.74932083	    -18.29977021	      0.49170870	     65.17350224	     90.00000001	      0.00000000	      0.00000000
      0.31000000	     16.82687847	      1.18674092	     -0.26197930	     -0.89522836	      0.99168654	     -0.15014558	      5.02558957	     -2.42008609	     -3.47853347	     36.96784050	      3.52733559	      0.64521053	      4.54704369	     -8.40117949	     -9.56741641	    -23.19144290	      3.85923246	     -6.10093609	      3.16231184	      1.64974449	      0.05519275	      9.09969780	     16.91806779	     -9.56741641	    -38.06464822	     -0.63680315	      1.56938325	     -1.71053284	    -19.16775478	     -6.32992259	     66.59418953	     90.00000001	      0.00000000	      0.00000000	      4.44170130	    -18.77936737	      0.99702626	     65.93597309	     90.00000001	      0.00000000	      0.00000000
      0.32000000	     16.85325546	      1.37290212	     -0.03450577	     -0.88251370	      0.98968660	     -0.15037241	      5.64972697	     -2.46547738	     -4.44165938	     33.74926806	      2.94210320	      0.58903585	      4.27356077	     -7.68961387	     -9.49413980	    -24.17112414	      3.93382083	     -6.08367702	      2.96544419	      1.75716584	      0.05175676	      9.72145834	     17.32995638	     -9.49413980	    -38.10310100	     -0.65492587	      1.46866704	     -2.08734037	    -19.13375018	     -6.87191004	     66.61930609	     90.00000001	      0.00000000	      0.00000000	      5.19521463	    -19.20188799	      1.47097786	     66.58213720	     90.00000001	      0.00000000	      0.00000000
      0.33000000	     16.81326715	      1.64692609	      0.17185320	     -0.86984752	      0.98737302	     -0.15059715	      6.30961885	     -2.62012706	     -5.68433324	     30.52822425	      2.25738990	      0.53281803	      4.02436030	     -6.41765409	     -9.41772859	    -25.00301615	      4.11754757	     -5.92879882	      2.91606278	      1.81257719	      0.05089490	     10.45667241	     17.63661371	     -9.41772859	    -38.08376197	     -0.76591121	      1.32304928	     -2.40872785	    -19.05338545	     -7.40465822	     66.56105010	     90.00000001	      0.00000000	      0.00000000	      5.97199913	    -19.63236336	      2.00718517	     67.18664543	     90.00000001	      0.00000000	      0.00000000
      0.34000000	     16.73899975	      1.99260955	      0.40757701	     -0.85720159	      0.98482519	     -0.15080913	      6.95248009	     -2.84955501	     -7.20851117	     27.31198989	      1.50115642	      0.47668415	      3.77322347	     -4.72187443	     -9.34970724	    -25.73602968	      4.34462612	     -5.65743622	      2.98481357	      1.87917980	      0.05209482	     11.24134122	     17.82718367	     -9.34970724	    -38.04457043	     -0.93651674	      1.12104855	     -2.69178653	    -18.92858882	     -7.93323101	     66.45395335	     90.00000001	      0.00000000	      0.00000000	      6.80437420	    -20.06759225	      2.60883052	     67.73009266	     90.00000001	      0.00000000	      0.00000000
      0.35000000	     16.65915677	      2.35212179	      0.62549642	     -0.84442273	      0.98209518	     -0.15092617	      7.57135713	     -3.07251867	     -9.16087842	     24.17026581	      0.60849295	      0.42185072	      3.59023910	     -2.26514188	     -9.26874697	    -26.43466305	      4.59618445	     -5.28980669	      3.14491277	      1.90654778	      0.05488908	     11.97048764	     17.84029598	     -9.26874697	    -37.98612682	     -1.12746943	      0.94379678	     -3.00153880	    -18.81134096	     -8.44105362	     66.38947188	     90.00000001	      0.00000000	      0.00000000	      7.61750648	    -20.50241165	      3.23676965	     68.20436016	     90.00000001	      0.00000000	      0.00000000
      0.36000000	     16.53708127	      2.76476623	      0.88101852	     -0.83158964	      0.97923753	     -0.15106086	      8.19135295	     -3.39118264	    -11.19566862	     21.15773322	     -0.10103753	      0.36927211	      3.31545625	      0.28868006	     -9.19614318	    -27.04127970	      4.87906142	     -4.79838112	      3.40808118	      1.91962731	      0.05948224	     12.72402109	     17.76354276	     -9.19614318	    -37.89107922	     -1.35440852	      0.70710916	     -3.26336268	    -18.65177007	     -8.92351333	     66.23783185	     90.00000001	      0.00000000	      0.00000000	      8.44844501	    -20.92489813	      3.90013748	     68.63242759	     90.00000001	      0.00000000	      0.00000000
      0.37000000	     16.15581938	      3.38352804	      0.97893435	     -0.81897572	      0.97590304	     -0.15116996	      9.11556028	     -3.97179908	    -12.46697384	     18.39525681	     -0.38478071	      0.32105780	      2.68837783	      1.94739641	     -9.15784772	    -27.27129676	      5.52935409	     -4.36596003	      3.84611630	      1.71516999	      0.06712739	     13.57504375	     17.77941612	     -9.15784772	    -37.55364605	     -1.84836556	      0.41699584	     -3.41909908	    -18.50075208	     -9.23966664	     65.96710684	     90.00000001	      0.00000000	      0.00000000	      9.22355056	    -21.29771342	      4.41884257	     69.03171089	     90.00000001	      0.00000000	      0.00000000
      0.38000000	     16.13433293	      3.71504490	      1.41734935	     -0.80551389	      0.97303935	     -0.15140039	      9.64364627	     -4.29421999	    -15.72156421	     16.10292139	     -1.13951994	      0.28104900	      3.03288724	      6.66784529	     -9.01864427	    -27.98766013	      5.57584413	     -3.81385175	      4.22082486	      1.83140472	      0.07366729	     14.19751008	     17.57730393	     -9.01864427	    -37.50454879	     -1.89227925	      0.13090585	     -3.76720323	    -18.32536829	     -9.74388292	     65.86629882	     90.00000001	      0.00000000	      0.00000000	      9.98788878	    -21.68531608	      5.15182144	     69.35456478	     90.00000001	      0.00000000	      0.00000000
      0.39000000	     15.93903340	      4.03034778	      1.76402659	     -0.79237717	      0.97007961	     -0.15141600	     10.12429457	     -4.55209615	    -17.17103698	     13.67001311	     -1.16721296	      0.23858674	      2.30538448	      8.05317628	     -8.96302589	    -28.39850007	      5.66970211	     -3.47571872	      4.79646474	      1.85174917	      0.08371410	     14.95156325	     17.58585529	     -8.96302589	    -37.33140454	     -1.97790266	     -0.10926531	     -3.95254635	    -18.13277554	    -10.14891519	     65.63114726	     90.00000001	      0.00000000	      0.00000000	     10.75223904	    -22.01573178	      5.78533621	     69.63731091	     90.00000001	      0.00000000	      0.00000000
      0.40000000	     15.63152987	      4.47417716	      2.08392673	     -0.77906081	      0.96697932	     -0.15153062	     10.68836983	     -4.99667624	    -18.08716971	     11.64353989	     -0.98979602	      0.20321811	      1.74062547	      9.04812784	     -8.93410599	    -28.69082177	      5.94528615	     -3.15347586	      5.40135184	      1.76424510	      0.09427137	     15.63503752	     17.68870021	     -8.93410599	    -37.02776939	     -2.19017021	     -0.43735763	     -4.12483923	    -17.96670717	    -10.43171357	     65.30832578	     90.00000001	      0.00000000	      0.00000000	     11.37643359	    -22.29661906	      6.28896904	     69.89442181	     90.00000001	      0.00000000	      0.00000000
      0.41000000	     15.46429000	      4.60685744	      2.55101891	     -0.76526999	      0.96411478	     -0.15151029	     11.10988355	     -5.08720352	    -19.71420848	     10.14872832	     -1.05444587	      0.17712872	      1.54416806	     11.04255992	     -8.81732777	    -28.96826872	      5.72917713	     -3.74892150	      6.42097959	      1.75078952	      0.11206724	     16.61158565	     19.01720913	     -8.81732777	    -36.81270036	     -2.03697895	     -0.61037068	     -4.39709041	    -17.78132737	    -10.85718911	     65.05626518	     90.00000001	      0.00000000	      0.00000000	     11.98874000	    -22.51625898	      6.88417779	     70.11676994	     90.00000001	      0.00000000	      0.00000000
      0.42000000	     15.10033845	      4.92234058	      2.98710289	     -0.75155481	      0.96116493	     -0.15165374	     11.64299974	     -5.41339283	    -20.18110957	      8.99298971	     -0.83645455	      0.15695728	      1.29223147	     11.32680945	     -8.79418561	    -29.16005867	      5.78236018	     -3.58856376	      7.16669769	      1.67283573	      0.12508247	     17.16337324	     19.17992579	     -8.79418561	    -36.42176826	     -2.06115432	     -0.95454554	     -4.51656174	    -17.59650435	    -11.10427843	     64.66262300	     90.00000001	      0.00000000	      0.00000000	     12.44933700	    -22.70162635	      7.26090809	     70.32628995	     90.00000001	      0.00000000	      0.00000000
      0.43000000	     14.77050304	      5.10013950	      3.50625893	     -0.73754878	      0.95840572	     -0.15175387	     12.08856024	     -5.57736100	    -20.56134853	      8.27778065	     -0.72171430	      0.14447453	      1.12139729	     11.42240466	     -8.77202501	    -29.32159587	      5.59527521	     -3.67095670	      8.09372766	      1.64756674	      0.14126220	     17.75159020	     19.60389051	     -8.77202501	    -36.03822649	     -1.91425574	     -1.24978607	     -4.65032866	    -17.38815947	    -11.44072456	     64.23568979	     90.00000001	      0.00000000	      0.00000000	     12.81771191	    -22.85463951	      7.65367404	     70.50603573	     90.00000001	      0.00000000	      0.00000000
